<svg width="108" height="37" viewBox="0 0 108 37" fill="none" xmlns="http://www.w3.org/2000/svg">
<path d="M11.5 14.3137C12.5355 12.2842 14.122 11 15.7749 11C18.7009 11 21 14.8369 21 19.7202C21 23.2848 19.8573 26.4567 17.9019 30H15.25C17.6543 26.0692 19.1 22.9101 19.1 19.7202C19.1 16.5492 17.6749 14.171 15.7749 14.171C14.312 14.171 12.887 15.7406 12.393 17.9127H10.6165C10.113 15.7406 8.68798 14.171 7.22499 14.171C5.32499 14.171 3.9 16.5492 3.9 19.7202C3.9 22.9101 5.34569 26.0692 7.74988 30H5.09624C3.14191 26.4547 2 23.2836 2 19.7202C2 14.8369 4.299 11 7.22499 11C8.87799 11 10.4645 12.2842 11.5 14.3137Z" fill="#FF2400"/>
<path d="M31.3475 30.448C29.4326 30.448 28.0627 30.088 27.2376 29.368C26.4125 28.632 26 27.632 26 26.368C26 25.952 26.0467 25.504 26.1401 25.024C26.2335 24.544 26.3581 24.04 26.5137 23.512L29.059 15.376C29.1057 15.2 29.1446 15.04 29.1758 14.896C29.2069 14.752 29.2225 14.624 29.2225 14.512C29.2225 14.224 29.0979 14.024 28.8489 13.912C28.5998 13.8 28.1561 13.712 27.5178 13.648L27.0742 13.6L27.261 13L30.7403 13.072L34.2197 13L34.0329 13.6L33.5425 13.648C32.9821 13.696 32.5228 13.8 32.1648 13.96C31.8223 14.104 31.5343 14.36 31.3008 14.728C31.0672 15.08 30.8415 15.616 30.6236 16.336L28.4052 23.512C28.2651 23.976 28.1561 24.424 28.0783 24.856C28.0004 25.288 27.9615 25.696 27.9615 26.08C27.9615 27.152 28.2573 28.024 28.8489 28.696C29.4404 29.352 30.3589 29.68 31.6043 29.68C32.4761 29.68 33.2623 29.488 33.9628 29.104C34.6789 28.72 35.325 28.08 35.901 27.184C36.477 26.288 37.0063 25.072 37.4889 23.536L40.1276 15.112C40.2054 14.824 40.2443 14.608 40.2443 14.464C40.2443 14.16 40.112 13.968 39.8474 13.888C39.5983 13.792 39.1857 13.712 38.6097 13.648L38.1661 13.6L38.3529 13L41.1083 13.072L43.9805 13L43.7937 13.6L43.3034 13.648C42.8052 13.696 42.3927 13.76 42.0657 13.84C41.7544 13.92 41.4975 14.08 41.2951 14.32C41.0928 14.544 40.9137 14.912 40.7581 15.424L38.493 22.72C37.9481 24.448 37.3799 25.888 36.7883 27.04C36.2123 28.176 35.4962 29.032 34.64 29.608C33.7838 30.168 32.6863 30.448 31.3475 30.448Z" fill="white"/>
<path d="M39.9597 30.184L40.1465 29.584L40.6369 29.536C41.4931 29.456 42.1081 29.232 42.4817 28.864C42.8709 28.496 43.19 27.92 43.4391 27.136L47.2454 15.328C47.2921 15.152 47.331 15.008 47.3621 14.896C47.3932 14.768 47.4088 14.648 47.4088 14.536C47.4088 14.248 47.2765 14.048 47.0118 13.936C46.7628 13.808 46.3191 13.712 45.6808 13.648L45.2371 13.6L45.4239 13L48.8099 13.072L50.2577 13.048C51.3474 13.032 52.3126 13.136 53.1532 13.36C53.9939 13.568 54.6555 13.928 55.1381 14.44C55.6363 14.952 55.9009 15.648 55.9321 16.528C55.9476 17.104 55.8464 17.624 55.6285 18.088C55.4105 18.536 55.1303 18.936 54.7878 19.288C54.3364 19.736 53.7993 20.104 53.1766 20.392C52.5539 20.664 51.9001 20.864 51.2151 20.992C52.3827 21.216 53.2934 21.64 53.9472 22.264C54.601 22.888 54.9279 23.72 54.9279 24.76C54.9279 25.4 54.8034 25.984 54.5543 26.512C54.3208 27.04 53.9939 27.52 53.5736 27.952C52.8886 28.656 51.9779 29.192 50.8415 29.56C49.7206 29.928 48.4285 30.112 46.9651 30.112H43.4391L39.9597 30.184ZM49.7907 13.672H49.5805L47.3621 20.584H49.5104C50.8648 20.584 51.9545 20.208 52.7796 19.456C53.6047 18.688 53.9939 17.664 53.9472 16.384C53.9316 15.408 53.558 14.704 52.8263 14.272C52.0947 13.84 51.0828 13.64 49.7907 13.672ZM46.7783 29.488C47.9615 29.488 49.0201 29.28 49.9541 28.864C50.8882 28.432 51.6198 27.84 52.1491 27.088C52.694 26.32 52.9664 25.448 52.9664 24.472C52.9664 23.24 52.6395 22.384 51.9857 21.904C51.3318 21.424 50.4211 21.184 49.2536 21.184H47.1753L45.1204 27.568C45.0892 27.68 45.0581 27.816 45.027 27.976C44.9958 28.136 44.9803 28.272 44.9803 28.384C44.9803 28.8 45.1359 29.088 45.4473 29.248C45.7587 29.408 46.2023 29.488 46.7783 29.488Z" fill="white"/>
<path d="M59.8093 30.448C59.0776 30.448 58.4783 30.296 58.0112 29.992C57.5442 29.672 57.2017 29.256 56.9838 28.744C56.7658 28.216 56.6569 27.656 56.6569 27.064C56.6569 26.056 56.867 25.08 57.2874 24.136C57.7077 23.192 58.2525 22.352 58.9219 21.616C59.6069 20.88 60.3464 20.296 61.1403 19.864C61.9343 19.432 62.7126 19.216 63.4755 19.216C64.1916 19.216 64.7286 19.456 65.0867 19.936C65.4603 20.416 65.6783 21.032 65.7405 21.784L66.5345 19.552H68.0757L65.1568 28.072C65.0945 28.312 65.04 28.528 64.9933 28.72C64.9466 28.896 64.9232 29.048 64.9232 29.176C64.9232 29.496 65.0478 29.656 65.2969 29.656C65.6393 29.656 65.9741 29.472 66.301 29.104C66.6279 28.736 66.8925 28.376 67.0949 28.024L67.5152 28.312C67.2195 28.808 66.8381 29.288 66.371 29.752C65.904 30.216 65.3358 30.448 64.6664 30.448C64.1838 30.448 63.8413 30.328 63.6389 30.088C63.4521 29.848 63.3587 29.528 63.3587 29.128C63.3587 28.824 63.4054 28.48 63.4988 28.096C62.9851 28.832 62.4169 29.408 61.7942 29.824C61.1715 30.24 60.5098 30.448 59.8093 30.448ZM60.0428 29.824C60.9302 29.824 61.763 29.392 62.5414 28.528C63.3198 27.648 63.9892 26.496 64.5496 25.072L64.8298 24.256C65.0945 23.456 65.2268 22.72 65.2268 22.048C65.2268 21.392 65.0945 20.864 64.8298 20.464C64.5652 20.048 64.1604 19.84 63.6156 19.84C62.9929 19.84 62.3702 20.088 61.7475 20.584C61.1403 21.064 60.5799 21.696 60.0662 22.48C59.568 23.264 59.1632 24.104 58.8519 25C58.5561 25.88 58.4082 26.728 58.4082 27.544C58.4082 28.296 58.5561 28.864 58.8519 29.248C59.1477 29.632 59.5446 29.824 60.0428 29.824Z" fill="white"/>
<path d="M76.9306 30.448C76.448 30.448 76.1055 30.328 75.9031 30.088C75.7163 29.848 75.6229 29.536 75.6229 29.152C75.6229 28.912 75.654 28.648 75.7163 28.36C75.7786 28.072 75.8642 27.776 75.9732 27.472L78.0047 21.568C78.176 21.056 78.1993 20.64 78.0748 20.32C77.9503 19.984 77.6623 19.816 77.2108 19.816C76.7905 19.816 76.3468 19.952 75.8798 20.224C75.4127 20.48 74.9613 20.816 74.5254 21.232C74.0895 21.648 73.7081 22.096 73.3812 22.576C73.0543 23.056 72.813 23.512 72.6573 23.944L70.4856 30.112H68.8043L71.6999 21.856C71.9645 21.072 71.9879 20.592 71.7699 20.416C71.552 20.224 71.0772 20.128 70.3455 20.128L70.5323 19.552L73.965 19.48L73.2177 22.048C73.5602 21.552 73.9572 21.096 74.4086 20.68C74.8757 20.248 75.3816 19.896 75.9265 19.624C76.4869 19.352 77.0863 19.216 77.7245 19.216C78.6741 19.216 79.2891 19.472 79.5693 19.984C79.8495 20.496 79.8261 21.224 79.4992 22.168L77.3976 28.192C77.2886 28.528 77.2264 28.856 77.2108 29.176C77.2108 29.496 77.3431 29.656 77.6078 29.656C77.9658 29.656 78.2927 29.488 78.5885 29.152C78.8999 28.8 79.1567 28.448 79.3591 28.096L79.7794 28.384C79.4837 28.88 79.1023 29.352 78.6352 29.8C78.1682 30.232 77.6 30.448 76.9306 30.448Z" fill="white"/>
<path d="M82.7949 30.112H81.1136L85.8072 15.328C85.9162 14.992 85.9707 14.704 85.9707 14.464C85.9707 14.16 85.885 13.952 85.7138 13.84C85.5581 13.728 85.3479 13.672 85.0833 13.672C84.8342 13.656 84.5618 13.648 84.266 13.648L84.4295 13.072L88.189 13L84.9432 23.272C85.5659 23.192 86.0641 23.008 86.4377 22.72C86.8269 22.432 87.2394 22.056 87.6753 21.592L88.5393 20.656C88.9752 20.192 89.3566 19.84 89.6835 19.6C90.0104 19.344 90.3685 19.216 90.7577 19.216C91.178 19.216 91.4816 19.312 91.6684 19.504C91.8708 19.68 92.0031 19.888 92.0654 20.128C92.1276 20.352 92.1588 20.544 92.1588 20.704C92.1588 21.056 92.0654 21.368 91.8785 21.64C91.7073 21.896 91.466 22.024 91.1547 22.024C90.9523 22.024 90.7577 21.96 90.5709 21.832C90.3841 21.688 90.2907 21.464 90.2907 21.16C90.2907 20.888 90.2829 20.696 90.2673 20.584C90.2517 20.456 90.2206 20.36 90.1739 20.296C90.1272 20.216 90.0494 20.176 89.9404 20.176C89.7847 20.176 89.629 20.24 89.4734 20.368C89.3177 20.496 89.1309 20.68 88.9129 20.92L87.9555 21.952C87.6442 22.288 87.3562 22.576 87.0915 22.816C86.8424 23.056 86.5389 23.24 86.1808 23.368C87.1927 23.496 87.8699 23.824 88.2124 24.352C88.5704 24.88 88.7572 25.712 88.7728 26.848C88.7884 27.632 88.8039 28.232 88.8195 28.648C88.8507 29.048 88.9129 29.32 89.0063 29.464C89.0997 29.592 89.2476 29.656 89.45 29.656C89.6524 29.656 89.9092 29.536 90.2206 29.296C90.5475 29.04 90.8666 28.64 91.178 28.096L91.575 28.384C91.1702 29.136 90.711 29.672 90.1972 29.992C89.6835 30.296 89.2009 30.448 88.7495 30.448C88.0801 30.448 87.652 30.192 87.4651 29.68C87.2783 29.168 87.1849 28.256 87.1849 26.944C87.1849 26.112 87.1149 25.456 86.9748 24.976C86.8502 24.496 86.6167 24.16 86.2742 23.968C85.9473 23.76 85.4647 23.656 84.8264 23.656L82.7949 30.112Z" fill="white"/>
</svg>
